<svg width="12" height="12" viewBox="0 0 12 12" fill="none" xmlns="http://www.w3.org/2000/svg">
<path d="M6 12C9.31371 12 12 9.31371 12 6C12 2.68629 9.31371 0 6 0C2.68629 0 0 2.68629 0 6C0 9.31371 2.68629 12 6 12Z" fill="#93C759"/>
<path fill-rule="evenodd" clip-rule="evenodd" d="M8.472 5.556C8.576 5.556 8.666 5.592 8.742 5.664C8.818 5.736 8.856 5.824 8.856 5.928C8.856 6.032 8.82 6.122 8.748 6.198C8.676 6.274 8.584 6.312 8.472 6.312H6.3V8.472C6.3 8.584 6.264 8.676 6.192 8.748C6.12 8.82 6.032 8.856 5.928 8.856C5.824 8.856 5.736 8.818 5.664 8.742C5.592 8.666 5.556 8.576 5.556 8.472V6.312H3.384C3.28 6.312 3.19 6.274 3.114 6.198C3.038 6.122 3 6.032 3 5.928C3 5.824 3.038 5.736 3.114 5.664C3.19 5.592 3.28 5.556 3.384 5.556H5.556V3.396C5.556 3.284 5.592 3.19 5.664 3.114C5.736 3.038 5.824 3 5.928 3C6.032 3 6.12 3.038 6.192 3.114C6.264 3.19 6.3 3.284 6.3 3.396V5.556H8.472Z" fill="white"/>
</svg>
