<svg width="24" height="49" viewBox="0 0 24 49" fill="none" xmlns="http://www.w3.org/2000/svg">
<path d="M11.4546 6.54547C11.4546 6.2442 11.6988 6 12 6C12.3012 6 12.5454 6.2442 12.5454 6.54547V11.4545H17.4546C17.7558 11.4545 18 11.6987 18 12C18 12.3013 17.7558 12.5455 17.4546 12.5455H12.5454V17.4545C12.5454 17.7558 12.3012 18 12 18C11.6988 18 11.4546 17.7558 11.4546 17.4545V12.5455H6.54544C6.2442 12.5455 6 12.3013 6 12C6 11.6987 6.2442 11.4545 6.54544 11.4545H11.4546V6.54547Z" fill="#999999"/>
<path fill-rule="evenodd" clip-rule="evenodd" d="M24 12C24 18.6274 18.6274 24 12 24C5.37259 24 0 18.6274 0 12C0 5.37256 5.37259 0 12 0C18.6274 0 24 5.37256 24 12ZM23 12C23 18.0751 18.0751 23 12 23C5.92487 23 1 18.0751 1 12C1 5.92487 5.92487 1 12 1C18.0751 1 23 5.92487 23 12Z" fill="#999999"/>
<path fill-rule="evenodd" clip-rule="evenodd" d="M12 49C18.6274 49 24 43.6274 24 37C24 30.3726 18.6274 25 12 25C5.37258 25 0 30.3726 0 37C0 43.6274 5.37258 49 12 49ZM6.14645 36.3536L5.35355 37.1464C5.15829 37.3417 5.15829 37.6583 5.35355 37.8536L9.63676 42.1368C9.83577 42.3358 10.1597 42.3314 10.3533 42.1271L18.6653 33.3533C18.8516 33.1567 18.8474 32.8474 18.6559 32.6559L17.8651 31.8651C17.6654 31.6654 17.34 31.6707 17.1468 31.8767L10.3532 39.1233C10.16 39.3293 9.83459 39.3346 9.63486 39.1349L6.85355 36.3536C6.65829 36.1583 6.34171 36.1583 6.14645 36.3536Z" fill="#93C759"/>
</svg>
