<?xml version="1.0" encoding="UTF-8"?>
<svg width="16px" height="33px" viewBox="0 0 16 33" version="1.1" xmlns="http://www.w3.org/2000/svg" xmlns:xlink="http://www.w3.org/1999/xlink">
    <!-- Generator: Sketch 54.1 (76490) - https://sketchapp.com -->
    <title>radio-button-icon</title>
    <desc>Created with Sketch.</desc>
    <g id="Page-1" stroke="none" stroke-width="1" fill="none" fill-rule="evenodd">
        <g id="radio-button-icon">
            <path d="M15.5,8 C15.5,15.5 15.5,15.5 8,15.5 C0.5,15.5 0.5,15.5 0.5,8 C0.5,0.5 0.5,0.5 8,0.5 C15.5,0.5 15.5,0.5 15.5,8 Z" id="Path" stroke="#979797"></path>
            <path d="M8,33 C16,33 16,33 16,25 C16,17 16,17 8,17 C0,17 0,17 0,25 C0,33 0,33 8,33 Z M3.97978,24.6869 L3.68689,24.9798 C3.49162,25.175 3.49162,25.4916 3.68689,25.6869 L6.30343,28.3034 C6.50243,28.5024 6.8264,28.4981 7.01996,28.2937 L12.332,22.6866 C12.5183,22.49 12.5141,22.1807 12.3225,21.9892 L12.0318,21.6985 C11.8321,21.4987 11.5067,21.504 11.3135,21.7101 L7.01985,26.2899 C6.82666,26.496 6.50125,26.5013 6.30152,26.3015 L4.68689,24.6869 C4.49162,24.4916 4.17504,24.4916 3.97978,24.6869 Z" id="Shape" fill="#979797"></path>
        </g>
    </g>
</svg>