<svg width="12" height="12" viewBox="0 0 12 12" fill="none" xmlns="http://www.w3.org/2000/svg">
<path opacity="0.6" d="M6 12C9.31371 12 12 9.31371 12 6C12 2.68629 9.31371 0 6 0C2.68629 0 0 2.68629 0 6C0 9.31371 2.68629 12 6 12Z" fill="black"/>
<path fill-rule="evenodd" clip-rule="evenodd" d="M8.36842 7.84C8.45614 7.92 8.5 8.01667 8.5 8.13C8.5 8.23 8.4598 8.31667 8.37939 8.39C8.29898 8.46333 8.20395 8.5 8.0943 8.5C7.97734 8.5 7.87135 8.45333 7.77632 8.36L6 6.51L4.23465 8.36C4.13962 8.45333 4.03363 8.5 3.91667 8.5C3.80702 8.5 3.71016 8.46333 3.6261 8.39C3.54203 8.31667 3.5 8.22667 3.5 8.12C3.5 8.02 3.54386 7.92667 3.63158 7.84L5.45175 5.97L3.70833 4.16C3.62061 4.06667 3.57675 3.97333 3.57675 3.88C3.57675 3.77333 3.61879 3.68333 3.70285 3.61C3.78692 3.53667 3.88012 3.5 3.98246 3.5C4.09942 3.5 4.20541 3.54667 4.30044 3.64L6 5.42L7.69956 3.64C7.79459 3.54667 7.90058 3.5 8.01754 3.5C8.12719 3.5 8.22222 3.53667 8.30263 3.61C8.38304 3.68333 8.42325 3.77 8.42325 3.87C8.42325 3.98333 8.37939 4.08 8.29167 4.16L6.54825 5.97L8.36842 7.84Z" fill="white"/>
</svg>
