<svg width="10" height="10" viewBox="0 0 10 10" fill="none" xmlns="http://www.w3.org/2000/svg">
<path fill-rule="evenodd" clip-rule="evenodd" d="M9.73684 8.68C9.91228 8.84 10 9.03333 10 9.26C10 9.46 9.91959 9.63333 9.75877 9.78C9.59795 9.92667 9.4079 10 9.1886 10C8.95468 10 8.74269 9.90667 8.55263 9.72L5 6.02L1.4693 9.72C1.27924 9.90667 1.06725 10 0.833333 10C0.614034 10 0.420322 9.92667 0.252193 9.78C0.0840635 9.63333 0 9.45333 0 9.24C0 9.04 0.0877184 8.85333 0.263158 8.68L3.90351 4.94L0.416667 1.32C0.241227 1.13333 0.153509 0.946668 0.153509 0.76C0.153509 0.546666 0.237572 0.366667 0.405702 0.22C0.573831 0.0733326 0.760233 0 0.964912 0C1.19883 0 1.41082 0.0933324 1.60088 0.28L5 3.84L8.39912 0.28C8.58918 0.0933324 8.80117 0 9.03509 0C9.25439 0 9.44444 0.0733326 9.60526 0.22C9.76608 0.366667 9.84649 0.539999 9.84649 0.74C9.84649 0.966668 9.75877 1.16 9.58333 1.32L6.09649 4.94L9.73684 8.68Z" fill="white"/>
</svg>
